<?xml version="1.0" encoding="UTF-8" standalone="no"?>
<!-- Created with Inkscape (http://www.inkscape.org/) -->

<svg
   xmlns:dc="http://purl.org/dc/elements/1.1/"
   xmlns:cc="http://creativecommons.org/ns#"
   xmlns:rdf="http://www.w3.org/1999/02/22-rdf-syntax-ns#"
   xmlns:svg="http://www.w3.org/2000/svg"
   xmlns="http://www.w3.org/2000/svg"
   xmlns:sodipodi="http://sodipodi.sourceforge.net/DTD/sodipodi-0.dtd"
   xmlns:inkscape="http://www.inkscape.org/namespaces/inkscape"
   width="208"
   height="192.79364"
   id="svg4329"
   version="1.1"
   inkscape:version="0.48.4 r9939"
   sodipodi:docname="A14.svg">
  <defs
     id="defs4331" />
  <sodipodi:namedview
     id="base"
     pagecolor="#ffffff"
     bordercolor="#666666"
     borderopacity="1.0"
     inkscape:pageopacity="0.0"
     inkscape:pageshadow="2"
     inkscape:zoom="2.8"
     inkscape:cx="74.525775"
     inkscape:cy="86.598772"
     inkscape:document-units="px"
     inkscape:current-layer="layer1"
     showgrid="false"
     fit-margin-top="4"
     fit-margin-left="4"
     fit-margin-right="4"
     fit-margin-bottom="4"
     inkscape:window-width="1920"
     inkscape:window-height="1153"
     inkscape:window-x="1276"
     inkscape:window-y="-4"
     inkscape:window-maximized="1" />
  <metadata
     id="metadata4334">
    <rdf:RDF>
      <cc:Work
         rdf:about="">
        <dc:format>image/svg+xml</dc:format>
        <dc:type
           rdf:resource="http://purl.org/dc/dcmitype/StillImage" />
        <dc:title></dc:title>
      </cc:Work>
    </rdf:RDF>
  </metadata>
  <g
     inkscape:label="Layer 1"
     inkscape:groupmode="layer"
     id="layer1"
     transform="translate(-103.23801,-398.61705)">
    <g
       id="g5223"
       transform="matrix(1.0137582,0,0,1.0137582,-1.4753978,-8.0816909)">
      <rect
         y="406.492"
         x="108.60506"
         height="179.55161"
         width="194.55161"
         id="rect5221"
         style="fill:#e0b300;fill-opacity:1;fill-rule:evenodd;stroke:#000000;stroke-width:2.73410606;stroke-miterlimit:4;stroke-opacity:1;stroke-dasharray:none" />
      <path
         inkscape:connector-curvature="0"
         id="path3299"
         d="m 109.38088,540.15107 0,-45.474 15.25,-0.27604 15.25,-0.27605 0,-5 0,-5 -15.25,-0.27605 -15.25,-0.27604 0,-37.97396 0,-37.97395 35,0 35,0 0,17.00661 0,17.00662 -2.75,2.22795 c -1.5125,1.22538 -5.47535,4.93543 -8.80635,8.24457 -10.93016,10.85843 -16.494,26.30303 -15.05464,41.78997 2.01666,21.69853 15.56655,38.96111 36.33485,46.29067 5.49656,1.9398 8.75892,2.3914 17.27614,2.3914 8.59136,0 11.76428,-0.4461 17.45517,-2.454 26.59314,-9.38283 41.29937,-37.19703 34.36953,-65.00379 -1.31374,-5.27156 -6.27499,-15.01813 -10.10818,-19.85793 -1.68709,-2.13012 -5.35098,-5.6247 -8.14198,-7.76573 -2.791,-2.14103 -5.63704,-4.35683 -6.32454,-4.92399 -0.91033,-0.75099 -1.25,-5.63996 -1.25,-17.99178 l 0,-16.96057 35,0 35,0 0,37.97327 0,37.97326 -14.75,0.27674 -14.75,0.27673 0,5 0,5 14.75,0.27673 14.75,0.27674 0,45.47322 0,45.4733 -45.47327,0 -45.47326,0 -0.27674,-14.75 -0.27673,-14.75 -5,0 -5,0 -0.27673,14.75 -0.27674,14.75 -45.47326,0 -45.47327,0 0,-45.4739 z m 43.98177,9.9922 10.44603,-10.4817 -3.41007,-3.5183 c -1.87553,-1.9351 -3.89233,-3.51829 -4.48176,-3.51829 -0.58944,0 -5.77242,4.71679 -11.51774,10.48169 l -10.44603,10.4817 3.41007,3.5183 c 1.87553,1.9351 3.89233,3.5183 4.48176,3.5183 0.58944,0 5.77242,-4.7168 11.51774,-10.4817 z m 121.21351,7.7946 c 1.5426,-1.4779 2.80472,-3.2529 2.80472,-3.9444 0,-1.2982 -19.62518,-21.36849 -20.89464,-21.36849 -0.39217,0 -2.24756,1.58319 -4.12309,3.51829 l -3.41007,3.5183 10.44603,10.4817 c 5.74532,5.7649 10.87945,10.4817 11.40918,10.4817 0.52974,0 2.22528,-1.2092 3.76787,-2.6871 z m -115,-114.99998 c 1.5426,-1.4779 2.80472,-3.25632 2.80472,-3.95204 0,-1.60394 -19.05498,-20.36087 -20.6844,-20.36087 -1.70511,0 -6.3156,4.45075 -6.3156,6.09678 0,1.53679 18.92478,20.90322 20.42652,20.90322 0.53022,0 2.22617,-1.20919 3.76876,-2.68709 z m 108.03683,-7.04415 c 5.37234,-5.35218 9.76789,-10.2139 9.76789,-10.80383 0,-0.58993 -1.58597,-2.60978 -3.52438,-4.48857 l -3.52439,-3.41596 -10.69542,10.69541 -10.69541,10.69542 3.41597,3.52438 c 1.87878,1.93842 3.88214,3.52439 4.45191,3.52439 0.56976,0 5.43149,-4.37906 10.80383,-9.73124 z m -72.48619,95.70749 c -10.77002,-2.71595 -22.87743,-12.65918 -27.97712,-22.97625 -1.49525,-3.025 -3.27081,-8.75837 -3.94569,-12.74081 -0.97369,-5.74571 -0.97001,-8.53324 0.0178,-13.5 1.73432,-8.72008 6.64633,-18.3417 12.19797,-23.89334 7.70169,-7.70169 19.86806,-12.82894 30.50099,-12.85398 6.5249,-0.0154 15.53347,2.35897 21.71471,5.72322 5.68647,3.09497 14.85038,12.59022 17.87754,18.52395 1.15124,2.2566 2.69963,7.57691 3.44088,11.82291 0.99593,5.70481 1.08984,9.3773 0.35976,14.06902 -2.18923,14.06873 -11.88634,27.12463 -24.5469,33.04922 -5.75288,2.6921 -7.97317,3.15871 -16.27383,3.42009 -5.28663,0.16647 -11.30139,-0.12334 -13.36613,-0.64403 z m 16.50408,-10.12968 c 0.9625,-1.13747 1.75,-3.16374 1.75,-4.50281 0,-3.18181 -4.22473,-7.34376 -7.45455,-7.34376 -3.62349,0 -6.54545,3.31567 -6.54545,7.42742 0,2.53465 0.70504,3.98201 2.70672,5.55652 3.16609,2.49046 6.84448,2.05207 9.54328,-1.13737 z m -0.70455,-18.30112 2.45455,-2.45454 0,-21.93467 c 0,-19.82688 -0.17721,-22.15352 -1.84417,-24.21212 -2.50727,-3.09636 -7.80439,-3.09636 -10.31166,0 -1.6691,2.06125 -1.84417,4.396 -1.84417,24.59408 l 0,22.31664 2.63486,2.07258 c 1.44917,1.13992 3.49463,2.07258 4.54545,2.07258 1.05083,0 3.01514,-1.10455 4.36514,-2.45455 z m 4.95455,-66.738 c -2.22511,-0.54561 -8.78679,-0.71161 -14.78779,-0.37409 l -10.78779,0.60673 0.28779,-9.27004 0.28779,-9.27005 15.5,0 15.5,0 0,9.41667 c 0,5.45946 -0.42023,9.51226 -1,9.64414 -0.55,0.12511 -2.8,-0.2139 -5,-0.75336 z"
         style="fill:#000000" />
    </g>
  </g>
</svg>
