<?xml version="1.0" encoding="UTF-8" standalone="no"?>
<!-- Created with Inkscape (http://www.inkscape.org/) -->

<svg
   xmlns:dc="http://purl.org/dc/elements/1.1/"
   xmlns:cc="http://creativecommons.org/ns#"
   xmlns:rdf="http://www.w3.org/1999/02/22-rdf-syntax-ns#"
   xmlns:svg="http://www.w3.org/2000/svg"
   xmlns="http://www.w3.org/2000/svg"
   xmlns:sodipodi="http://sodipodi.sourceforge.net/DTD/sodipodi-0.dtd"
   xmlns:inkscape="http://www.inkscape.org/namespaces/inkscape"
   width="185.12375"
   height="207.99995"
   id="svg4329"
   version="1.1"
   inkscape:version="0.48.4 r9939"
   sodipodi:docname="A16L.svg">
  <defs
     id="defs4331" />
  <sodipodi:namedview
     id="base"
     pagecolor="#ffffff"
     bordercolor="#666666"
     borderopacity="1.0"
     inkscape:pageopacity="0.0"
     inkscape:pageshadow="2"
     inkscape:zoom="2.8"
     inkscape:cx="62.107301"
     inkscape:cy="76.282483"
     inkscape:document-units="px"
     inkscape:current-layer="layer1"
     showgrid="false"
     fit-margin-top="4"
     fit-margin-left="4"
     fit-margin-right="4"
     fit-margin-bottom="4"
     inkscape:window-width="1920"
     inkscape:window-height="1153"
     inkscape:window-x="1276"
     inkscape:window-y="-4"
     inkscape:window-maximized="1" />
  <metadata
     id="metadata4334">
    <rdf:RDF>
      <cc:Work
         rdf:about="">
        <dc:format>image/svg+xml</dc:format>
        <dc:type
           rdf:resource="http://purl.org/dc/dcmitype/StillImage" />
        <dc:title></dc:title>
      </cc:Work>
    </rdf:RDF>
  </metadata>
  <g
     inkscape:label="Layer 1"
     inkscape:groupmode="layer"
     id="layer1"
     transform="translate(-115.65648,-373.09445)">
    <g
       id="g5295"
       transform="matrix(1.9417471,0,0,1.9417471,-162.625,-455.42962)">
      <rect
         y="430.13104"
         x="146.74702"
         height="100.26495"
         width="88.47921"
         id="rect5293"
         style="fill:#00a000;fill-opacity:1;fill-rule:evenodd;stroke:#000000;stroke-width:2.73507214;stroke-miterlimit:4;stroke-opacity:1;stroke-dasharray:none" />
      <path
         inkscape:connector-curvature="0"
         id="path3351"
         d="m 147.66389,505.91168 0,-23.8519 15.76915,15.6019 c 8.67303,8.581 19.47303,19.1396 24,23.4636 4.52697,4.3239 8.23085,8.0364 8.23085,8.25 0,0.2135 -10.8,0.3882 -24,0.3882 l -24,0 0,-23.8518 z m 51.83407,10.6032 c 0.18374,-7.2883 0.4153,-13.333 0.51458,-13.4326 0.0993,-0.1 7.93704,-0.3247 17.41724,-0.5 l 17.23673,-0.3188 -10e-4,13.75 -0.001,13.75 -17.75,0 -17.75,0 0.33407,-13.2514 z m -25.33993,-24.7573 -10.97175,-11.0059 11.73881,-11.7388 11.7388,-11.7388 0,5.1733 c 0,8.1569 0.37478,8.3161 19.57143,8.3161 l 16.42857,0 0,10 0,10 -16.42857,0 c -18.88163,0 -19.57143,0.2669 -19.57143,7.5714 0,2.4357 -0.34517,4.4286 -0.76705,4.4286 -0.42188,0 -5.70435,-4.9526 -11.73881,-11.0059 z m -26.49414,-36.5176 0,-24.4765 24.47639,0 24.47638,0 -16.4694,16.1363 c -9.05818,8.8749 -20.07255,19.8894 -24.47639,24.4765 l -8.00698,8.3403 0,-24.4766 z m 68.75,3.7752 -16.75,-0.3001 0,-12.394 c 0,-6.8167 -0.27315,-13.1058 -0.60699,-13.9758 -0.53972,-1.4065 1.39964,-1.5818 17.5,-1.5818 l 18.10699,0 0,14.5 c 0,7.975 -0.3375,14.3991 -0.75,14.2759 -0.4125,-0.1233 -8.2875,-0.3592 -17.5,-0.5242 z"
         style="fill:#000000" />
    </g>
  </g>
</svg>
